<?xml version="1.0" encoding="UTF-8" standalone="no"?>
<svg
   viewBox="0 0 2000 512"
   version="1.1"
   id="svg134"
   sodipodi:docname="cc.svg"
   width="2000"
   height="512"
   inkscape:version="1.2.2 (b0a8486541, 2022-12-01)"
   xmlns:inkscape="http://www.inkscape.org/namespaces/inkscape"
   xmlns:sodipodi="http://sodipodi.sourceforge.net/DTD/sodipodi-0.dtd"
   xmlns="http://www.w3.org/2000/svg"
   xmlns:svg="http://www.w3.org/2000/svg">
  <defs
     id="defs138" />
  <sodipodi:namedview
     id="namedview136"
     pagecolor="#ffffff"
     bordercolor="#666666"
     borderopacity="1.0"
     inkscape:showpageshadow="2"
     inkscape:pageopacity="0.0"
     inkscape:pagecheckerboard="0"
     inkscape:deskcolor="#d1d1d1"
     showgrid="false"
     inkscape:zoom="0.32593203"
     inkscape:cx="897.42637"
     inkscape:cy="776.23546"
     inkscape:window-width="1920"
     inkscape:window-height="1009"
     inkscape:window-x="-8"
     inkscape:window-y="-8"
     inkscape:window-maximized="1"
     inkscape:current-layer="svg134" />
  <g
     id="g1308"
     transform="translate(47.101728)">
    <path
       d="m 257.91474,214.82 -33.22,17.28 c -9.43,-19.58 -25.24,-19.93 -27.46,-19.93 -22.13,0 -33.22,14.61 -33.22,43.84 0,23.57 9.21,43.84 33.22,43.84 14.47,0 24.65,-7.09 30.57,-21.26 l 30.55,15.5 c -6.17,11.51 -25.69,38.98 -65.1,38.98 -22.6,0 -73.96,-10.32 -73.96,-77.05 0,-58.69 43,-77.06 72.63,-77.06 30.72,-0.01 52.7,11.95 65.99,35.86 z m 143.05,0 -32.78,17.28 c -9.5,-19.77 -25.72,-19.93 -27.9,-19.93 -22.14,0 -33.22,14.61 -33.22,43.84 0,23.55 9.23,43.84 33.22,43.84 14.45,0 24.65,-7.09 30.54,-21.26 l 31,15.5 c -2.1,3.75 -21.39,38.98 -65.09,38.98 -22.69,0 -73.96,-9.87 -73.96,-77.05 0,-58.67 42.97,-77.06 72.63,-77.06 30.71,-0.01 52.58,11.95 65.56,35.86 z M 259.64474,8 c -142.82,0 -247.559996,115.06 -247.559996,248 0,138.49 113.599996,248 247.559996,248 129.93,0 248.44,-100.87 248.44,-248 0,-137.87 -106.62,-248 -248.44,-248 z m 0.87,450.81 c -112.54,0 -203.699996,-93.04 -203.699996,-202.81 0,-105.42 85.429996,-203.27 203.719996,-203.27 112.53,0 202.82,89.46 202.82,203.26 -0.01,121.69 -99.68,202.82 -202.84,202.82 z"
       id="path132" />
    <path
       d="M 1019.7982,194.4 V 295.8 H 991.49821 V 416.3 H 914.39824 V 295.9 H 886.09825 V 194.4 c 0,-4.4 1.6,-8.2 4.6,-11.3 3.10001,-3.1 6.9,-4.7 11.3,-4.7 h 101.89995 c 4.1,0 7.8,1.6 11.1,4.7 3.1,3.2 4.8,6.9 4.8,11.3 z M 918.29824,130.7 c 0,-23.3 11.5,-35.000006 34.5,-35.000006 23,0 34.49997,11.700006 34.49997,35.000006 0,23 -11.49997,34.5 -34.49997,34.5 -23,0 -34.5,-11.5 -34.5,-34.5 z M 952.49825,8.0000003 C 1094.2982,8.0000003 1200.8983,118.1 1200.8983,256 c 0,147.1 -118.5001,248 -248.40005,248 -134,0 -247.60001,-109.5 -247.60001,-248 0,-132.9 104.70001,-247.9999998 247.60001,-247.9999997 z m 0.79999,44.7000007 c -118.2,0 -203.69999,97.899999 -203.69999,203.299999 0,109.8 91.2,202.8 203.7,202.8 103.19995,0 202.79995,-81.1 202.79995,-202.8 0.1,-113.8 -90.2,-203.299998 -202.79996,-203.299999 z"
       id="path257" />
    <path
       d="m 1645.3118,7.999998 c 141.8,0 248.4,110.100002 248.4,248.000002 0,147.1 -118.5,248 -248.4,248 -134,0 -247.6,-109.5 -247.6,-248 0,-132.9 104.7,-248.000002 247.6,-248.000002 z m 0.8,44.700001 c -118.2,0 -203.7,97.900001 -203.7,203.300001 0,109.8 91.2,202.8 203.7,202.8 103.2,0 202.8,-81.1 202.8,-202.8 0.1,-113.8 -90.2,-203.300002 -202.8,-203.300001 z M 1535.4118,221 c 13,-83.9 80.5,-95.7 108.9,-95.7 99.8,0 127.5,82.5 127.5,134.2 0,63.6 -41,132.9 -128.9,132.9 -38.9,0 -99.1,-20 -109.4,-97 h 62.5 c 1.5,30.1 19.6,45.2 54.5,45.2 23.3,0 58,-18.2 58,-82.8 0,-82.5 -49.1,-80.6 -56.7,-80.6 -33.1,0 -51.7,14.6 -55.8,43.8 h 18.2 l -49.2,49.2 -49,-49.2 z"
       id="path571" />
  </g>
</svg>
